<svg id="chat" xmlns="http://www.w3.org/2000/svg" width="44.881" height="45.705" viewBox="0 0 44.881 45.705">
  <g id="Group_44" data-name="Group 44" transform="translate(0)">
    <path id="Path_40" data-name="Path 40" d="M25.91,0h-.073A22.422,22.422,0,0,0,8.252,36.394L4.982,44a1.219,1.219,0,0,0,.637,1.6,1.245,1.245,0,0,0,.7.086l11.989-2.106a21.605,21.605,0,0,0,7.47,1.3A22.44,22.44,0,0,0,25.91,0ZM18.22,17.952h6.613a1.225,1.225,0,1,1,0,2.449H18.22a1.225,1.225,0,1,1,0-2.449ZM33.4,26.524H18.22a1.225,1.225,0,1,1,0-2.449H33.4a1.225,1.225,0,1,1,0,2.449Z" transform="translate(-3.366)" fill="#fff"/>
  </g>
</svg>
