<svg xmlns="http://www.w3.org/2000/svg" width="35.582" height="23.313" viewBox="0 0 35.582 23.313">
  <g id="saudi-arabia" transform="translate(0 -88.276)">
    <path id="Path_60" data-name="Path 60" d="M34.969,111.589H.614A.614.614,0,0,1,0,110.975V88.89a.614.614,0,0,1,.614-.614H34.969a.614.614,0,0,1,.614.614v22.086A.614.614,0,0,1,34.969,111.589Z" transform="translate(0 0)" fill="#73af00"/>
    <g id="Group_143" data-name="Group 143" transform="translate(7.035 93.184)">
      <path id="Path_61" data-name="Path 61" d="M102.46,168.587c.06.388.295.509.5.493a.5.5,0,0,0,.451-.47v-1.33a.121.121,0,0,1,.242,0v1.336a.483.483,0,0,0,.663.449l.121-.048c.011,1.116-.057,2.1-.058,2.116a.242.242,0,0,0,.224.258h.018a.242.242,0,0,0,.241-.225c.006-.079.08-1.153.058-2.343l.073-.029a.242.242,0,0,1,.2.008.691.691,0,0,0,.8-.129l.044-.044a.722.722,0,0,0,.175-.743l-.206-.618a.242.242,0,0,0,.179-.447l-.484-.242a.242.242,0,0,0-.338.293l.389,1.167a.241.241,0,0,1-.058.247l-.044.044a.208.208,0,0,1-.239.039.723.723,0,0,0-.5-.05,8.341,8.341,0,0,0-.3-2.083.242.242,0,0,0-.459.153,8.315,8.315,0,0,1,.277,2.111l-.29.116v-1.336a.6.6,0,1,0-1.209,0v1.171l-.247-1.219a.242.242,0,1,0-.474.1Z" transform="translate(-102.133 -165.572)" fill="#f5f5f5"/>
      <path id="Path_62" data-name="Path 62" d="M109.4,163.32a.242.242,0,0,0,.242-.242v-.242a.242.242,0,0,0-.484,0v.242A.242.242,0,0,0,109.4,163.32Z" transform="translate(-108.609 -162.337)" fill="#f5f5f5"/>
      <path id="Path_63" data-name="Path 63" d="M144.2,163.078h.242a.242.242,0,1,0,0-.484H144.2a.242.242,0,1,0,0,.484Z" transform="translate(-140.987 -162.337)" fill="#f5f5f5"/>
      <path id="Path_64" data-name="Path 64" d="M107.006,214.825l-1.209.726a.242.242,0,1,0,.249.415l1.209-.726a.242.242,0,1,0-.249-.415Z" transform="translate(-105.37 -210.906)" fill="#f5f5f5"/>
      <path id="Path_65" data-name="Path 65" d="M119.907,169.921l.006,0a.552.552,0,0,0,.112.227.475.475,0,0,0,.412.16.667.667,0,0,0,.5-.264.438.438,0,0,0,.051.03.458.458,0,0,0,.426-.014.918.918,0,0,0,.433-.851.247.247,0,0,0-.252-.229.243.243,0,0,0-.231.251s.005.29-.17.4a.589.589,0,0,1-.075-.2.242.242,0,0,0-.48.04c0,.035-.008.345-.247.371a.59.59,0,0,1,0-.316.242.242,0,0,0-.371-.256l-.135.092c-.064-1.4-.212-3.037-.214-3.058a.242.242,0,1,0-.482.044c0,.022.173,1.913.226,3.357l-.037.036a.623.623,0,0,0-.529-.416.883.883,0,0,0-.852.539.572.572,0,0,0,.185.721.806.806,0,0,0,.721.033,2.022,2.022,0,0,1-.393.746,1.015,1.015,0,0,1-.773.394.635.635,0,0,1-.47-.2,1.381,1.381,0,0,1-.256-.865.242.242,0,0,0-.228-.254.237.237,0,0,0-.255.228,1.855,1.855,0,0,0,.38,1.216,1.109,1.109,0,0,0,.81.359h.049a1.474,1.474,0,0,0,1.11-.563,2.5,2.5,0,0,0,.554-1.24,2.741,2.741,0,0,1-1.16,2.171,1.208,1.208,0,0,1-1.211.089,1.037,1.037,0,0,1-.532-1.023.242.242,0,0,0-.48-.06,1.519,1.519,0,0,0,.8,1.516,1.644,1.644,0,0,0,.732.175,1.79,1.79,0,0,0,.948-.286,3.215,3.215,0,0,0,1.389-2.584C119.915,170.27,119.912,170.1,119.907,169.921Zm-1.458.249c-.043-.029-.009-.12,0-.138a.411.411,0,0,1,.337-.238h.019c.031,0,.113.011.148.193,0,.019.007.039.009.059C118.692,170.206,118.512,170.211,118.449,170.17Z" transform="translate(-115.011 -165.574)" fill="#f5f5f5"/>
      <path id="Path_66" data-name="Path 66" d="M102.141,243.635a.242.242,0,0,0-.331.086.5.5,0,0,1-.041.057l-.008-.02a1.626,1.626,0,0,1,.007-.82.242.242,0,0,0-.467-.125,2.082,2.082,0,0,0,.007,1.115c.111.3.281.37.4.38h.033a.635.635,0,0,0,.482-.345A.241.241,0,0,0,102.141,243.635Z" transform="translate(-101.226 -236.815)" fill="#f5f5f5"/>
      <path id="Path_67" data-name="Path 67" d="M175.372,164.771a.24.24,0,0,0,.149-.052l1.219-.957a.232.232,0,0,0,.04-.047.605.605,0,1,0-.695-.054l-.863.677a.242.242,0,0,0,.15.432Zm1.1-1.693a.121.121,0,1,1-.121.121A.121.121,0,0,1,176.47,163.079Z" transform="translate(-169.993 -162.338)" fill="#f5f5f5"/>
      <path id="Path_68" data-name="Path 68" d="M185.506,190.445a.241.241,0,0,0-.306.153.739.739,0,0,0,.094.713.488.488,0,0,0,.361.138,1.063,1.063,0,0,0,.334-.062.242.242,0,1,0-.153-.459.838.838,0,0,1-.2.042.463.463,0,0,1,.02-.221A.241.241,0,0,0,185.506,190.445Z" transform="translate(-179.316 -188.241)" fill="#f5f5f5"/>
      <path id="Path_69" data-name="Path 69" d="M227.79,163.4a.242.242,0,0,0,.3-.164l.141-.484a.242.242,0,0,0-.464-.136l-.141.484A.242.242,0,0,0,227.79,163.4Z" transform="translate(-218.832 -162.201)" fill="#f5f5f5"/>
      <path id="Path_70" data-name="Path 70" d="M206.071,160.074a.242.242,0,1,0,.244-.417c-.049-.028-.042-.108-.04-.124a.19.19,0,0,1,.111-.161.242.242,0,0,0-.144-.462.664.664,0,0,0-.448.568A.6.6,0,0,0,206.071,160.074Z" transform="translate(-198.523 -158.898)" fill="#f5f5f5"/>
      <path id="Path_71" data-name="Path 71" d="M179,232.19a.242.242,0,0,0-.045.479.454.454,0,0,1,.045.246.242.242,0,1,0,.484,0C179.48,232.2,179.016,232.19,179,232.19Z" transform="translate(-173.366 -227.096)" fill="#f5f5f5"/>
      <path id="Path_72" data-name="Path 72" d="M234.906,208.521a.557.557,0,0,0,.091.007.827.827,0,0,0,.572-.286.242.242,0,0,0-.342-.342c-.145.145-.222.148-.242.143-.046-.007-.088-.067-.1-.083a.242.242,0,0,0-.431.219A.654.654,0,0,0,234.906,208.521Z" transform="translate(-225.174 -204.429)" fill="#f5f5f5"/>
      <path id="Path_73" data-name="Path 73" d="M294.06,190.99l0-.011a.242.242,0,0,0-.458.155.542.542,0,0,0,.393.377.4.4,0,0,0,.053,0,.592.592,0,0,0,.468-.323.242.242,0,0,0-.4-.268A.726.726,0,0,1,294.06,190.99Z" transform="translate(-280.217 -188.597)" fill="#f5f5f5"/>
      <path id="Path_74" data-name="Path 74" d="M206.162,172.355c0-1.031-.045-2-.108-2.846a12.248,12.248,0,0,1,.849,1.722.242.242,0,1,0,.453-.17,16.018,16.018,0,0,0-1.4-2.651c-.132-1.3-.28-2.13-.283-2.144a.242.242,0,0,0-.476.086c0,.01.078.436.169,1.153-.186-.276-.358-.524-.5-.729l.012,0a.242.242,0,1,0,.153-.459l-.726-.242a.24.24,0,0,0-.273.088.244.244,0,0,0-.035.074.528.528,0,0,0-.5-.121.412.412,0,0,0-.231.43,2.184,2.184,0,0,0,.167.685c.142.4.232.7.081.841a.264.264,0,0,1-.248.087c-.149-.038-.3-.236-.4-.531a.224.224,0,0,0-.019-.034,4.112,4.112,0,0,0-.074-1.338.242.242,0,0,0-.474.095,2.3,2.3,0,0,1-.127,1.723.434.434,0,0,1-.362.164.139.139,0,0,1-.116-.054,2.331,2.331,0,0,1-.128-1.363.242.242,0,0,0-.239-.276c-.416,0-.574.473-.713.891-.061.184-.175.525-.254.56-.146,0-.241-.43-.242-.726a.242.242,0,0,0-.242-.241h0a.241.241,0,0,0-.242.242c0,.558.19,1.209.726,1.209.4,0,.56-.435.7-.838a1.516,1.516,0,0,0,.274.859.62.62,0,0,0,.481.221.92.92,0,0,0,.736-.341,1.112,1.112,0,0,0,.09-.133.9.9,0,0,0,.507.38.7.7,0,0,0,.171.022.767.767,0,0,0,.527-.225.717.717,0,0,0,.081-.1.651.651,0,0,0,.179.027.979.979,0,0,0,.5-.154.242.242,0,0,0-.26-.408.513.513,0,0,1-.274.072,2.5,2.5,0,0,0-.183-.795,3.351,3.351,0,0,1-.125-.4c.02.017.039.034.057.051a.242.242,0,0,0,.342,0,.233.233,0,0,0,.035-.053c.251.345.766,1.071,1.3,1.908.1,1.028.19,2.34.19,3.778a.242.242,0,0,0,.484,0Z" transform="translate(-192.793 -165.568)" fill="#f5f5f5"/>
      <path id="Path_75" data-name="Path 75" d="M293.828,167.043a.242.242,0,1,0,.484,0,2.466,2.466,0,0,0-.267-.834.242.242,0,0,0-.433.216A2.147,2.147,0,0,1,293.828,167.043Z" transform="translate(-280.218 -165.577)" fill="#f5f5f5"/>
      <path id="Path_76" data-name="Path 76" d="M263.589,250.1a.242.242,0,0,0-.325.107.693.693,0,0,1-.1.144,1.351,1.351,0,0,1,.064-.447.242.242,0,0,0-.4-.242l-.484.484a.242.242,0,0,0,.342.342l.012-.012a.5.5,0,0,0,.13.254.443.443,0,0,0,.314.139.431.431,0,0,0,.067-.005.787.787,0,0,0,.49-.438A.241.241,0,0,0,263.589,250.1Z" transform="translate(-251.079 -243.286)" fill="#f5f5f5"/>
      <path id="Path_77" data-name="Path 77" d="M172.827,206.057h-1.7q.023-.09.047-.172c.68-.141,1.084-.361,1.2-.653a.541.541,0,0,0-.091-.543.6.6,0,0,0-.611-.261c-.344.07-.65.44-.87,1.033a2.781,2.781,0,0,0-1.4.6,3.746,3.746,0,0,0-.5-1.608.242.242,0,0,0-.4.268,3.492,3.492,0,0,1,.443,1.8,1.914,1.914,0,0,1-1.451,1.935c-.272,0-.39-.323-.443-.6a2.777,2.777,0,0,0,1.161-1.28,1.923,1.923,0,0,0-.161-1.311l-.018-.042.015.014a.242.242,0,1,0,.342-.342c-.141-.141-.416-.364-.665-.259a.412.412,0,0,0-.231.43,1.028,1.028,0,0,0,.113.389,1.462,1.462,0,0,1,.136,1,2.046,2.046,0,0,1-.792.873.238.238,0,0,0-.183-.089h0a.242.242,0,0,0-.242.242c0,.043,0,.09,0,.138a12.72,12.72,0,0,1-1.556.851.242.242,0,0,0,.1.462.239.239,0,0,0,.1-.022,13.928,13.928,0,0,0,1.444-.773.941.941,0,0,0,.874.8,2.054,2.054,0,0,0,1.618-1.183,1.4,1.4,0,0,0,.161.231,2.726,2.726,0,0,0,1.848.71.242.242,0,0,0,.017-.483.518.518,0,0,1-.3-.147.415.415,0,0,1-.079-.318c.025-.3.986-.521,1.833-.534a.242.242,0,0,0,.224-.161l.242-.68a.242.242,0,0,0-.228-.323Zm-1.061-1.155.018,0c.023,0,.06.011.108.077.009.012.039.054.031.073-.028.068-.195.182-.543.284C171.534,205.035,171.684,204.918,171.766,204.9Zm-1.46,3.179a1.481,1.481,0,0,1-.669-.407,1.028,1.028,0,0,1-.215-.852.712.712,0,0,1,.05-.1c.341-.031,1.25.1,1.313.364a.812.812,0,0,0-.511.631A1.02,1.02,0,0,0,170.305,208.081Z" transform="translate(-160.411 -201.19)" fill="#f5f5f5"/>
      <path id="Path_78" data-name="Path 78" d="M292.029,166.962l-.242-.726a.242.242,0,0,0-.47.1c.167,1.669.483,4.923.483,5.3,0,.335-.6.995-1.559,1.477a.242.242,0,0,0,.216.433c.88-.44,1.826-1.225,1.826-1.909,0-.357-.247-2.928-.389-4.372A.242.242,0,0,0,292.029,166.962Z" transform="translate(-276.98 -165.572)" fill="#f5f5f5"/>
      <path id="Path_79" data-name="Path 79" d="M336.142,194.407a.242.242,0,0,0,.405-.231,1.22,1.22,0,0,1-.035-.469.245.245,0,0,0,.251-.207.242.242,0,0,0-.205-.274.437.437,0,0,0-.4.134.554.554,0,0,0-.122.26l-.28-.28a.242.242,0,1,0-.342.342Z" transform="translate(-319.075 -190.835)" fill="#f5f5f5"/>
      <path id="Path_80" data-name="Path 80" d="M341.137,213.31l-.907.65a.242.242,0,1,0,.282.393l.907-.65a.242.242,0,1,0-.282-.393Z" transform="translate(-323.526 -209.486)" fill="#f5f5f5"/>
      <path id="Path_81" data-name="Path 81" d="M352.793,225.756a.242.242,0,0,0,.021.321.67.67,0,0,1,.049.348.242.242,0,0,0,.233.25h.009a.242.242,0,0,0,.242-.233c.018-.494-.144-.674-.214-.729A.242.242,0,0,0,352.793,225.756Z" transform="translate(-335.263 -221.023)" fill="#f5f5f5"/>
      <path id="Path_82" data-name="Path 82" d="M325.759,172.092a.242.242,0,0,0,.242-.242c0-.357-.018-.755-.048-1.17a8.824,8.824,0,0,1,.567,1.053.241.241,0,0,0,.222.147.238.238,0,0,0,.1-.02.242.242,0,0,0,.127-.317,13.3,13.3,0,0,0-1.107-1.908c-.095-.888-.219-1.757-.315-2.381a.233.233,0,0,0,.151-.038.137.137,0,1,1,.134-.149.88.88,0,0,1,.088.592.242.242,0,0,0,.188.286.255.255,0,0,0,.049.005.242.242,0,0,0,.237-.193,1.371,1.371,0,0,0-.154-.95.243.243,0,0,0-.334-.074.24.24,0,0,0-.108.219.234.234,0,0,0-.027-.07l-.408-.635a.242.242,0,0,0-.442.173c0,.019.188,1.08.352,2.359-.185-.262-.371-.518-.551-.762-.029-.366-.059-.7-.084-.984a.246.246,0,0,0,.039-.016.242.242,0,0,0,.108-.324l-.242-.484a.242.242,0,0,0-.457.132c.029.289.059.608.088.944-.153-.2-.294-.386-.416-.542a.242.242,0,0,0-.049-.4l-.484-.242a.242.242,0,0,0-.3.368c.013.016.609.763,1.321,1.726a19.439,19.439,0,0,1,.09,3.608c-.021.064-.058.139-.093.141-.146.02-.495-.306-.67-.657a.337.337,0,0,0-.324-.219c-.26.016-.361.3-.546.821a3.4,3.4,0,0,1-.481,1.024,2.746,2.746,0,0,1-.3-.952.241.241,0,0,0,.467-.082c0-.361-.252-3.107-.393-4.612a.242.242,0,0,0,.139-.3l-.242-.726a.242.242,0,0,0-.47.1c.164,1.725.472,5.057.482,5.517l0-.012a.242.242,0,1,0-.479.068c.071.494.251,1.344.667,1.483a.4.4,0,0,0,.129.021.475.475,0,0,0,.34-.158,3.487,3.487,0,0,0,.6-1.208c.036-.1.078-.219.117-.32.222.324.609.727,1,.7a.593.593,0,0,0,.518-.471,13.616,13.616,0,0,0-.009-3.019c.2.286.408.578.6.867.076.724.129,1.45.129,2.046A.242.242,0,0,0,325.759,172.092Z" transform="translate(-306.118 -165.578)" fill="#f5f5f5"/>
      <path id="Path_83" data-name="Path 83" d="M383.181,171.223c-.171-1.276-.41-2.755-.561-3.662a.238.238,0,0,0,.2-.043.242.242,0,0,0,.046-.339l-.438-.574a.242.242,0,0,0-.431.188c0,.025.436,2.507.7,4.494a2.267,2.267,0,0,1-.4,1.815,1.07,1.07,0,0,1-.887.331.242.242,0,1,0-.03.483c.041,0,.081,0,.121,0a1.526,1.526,0,0,0,1.15-.487A2.7,2.7,0,0,0,383.181,171.223Z" transform="translate(-361.705 -165.98)" fill="#f5f5f5"/>
      <path id="Path_84" data-name="Path 84" d="M371.079,256.21a.245.245,0,0,0,.012.34.1.1,0,0,1,.029.05.113.113,0,0,1-.037.054.242.242,0,1,0,.342.342.548.548,0,0,0,.178-.413.576.576,0,0,0-.19-.394A.24.24,0,0,0,371.079,256.21Z" transform="translate(-352.263 -249.374)" fill="#f5f5f5"/>
      <path id="Path_85" data-name="Path 85" d="M158.951,327.1h-1.693v-.242a.242.242,0,0,0-.484,0v.242H143.957a3.376,3.376,0,0,0,2.176.726h10.641v.484a.242.242,0,0,0,.242.242h1.935a.725.725,0,1,0,0-1.451Zm0,.967h-1.693v-.242h1.935l-.043-.13a.234.234,0,0,1,.043.13A.242.242,0,0,1,158.951,328.072Z" transform="translate(-140.987 -314.965)" fill="#f5f5f5"/>
    </g>
  </g>
</svg>
