<svg id="email" xmlns="http://www.w3.org/2000/svg" width="63.278" height="63.278" viewBox="0 0 63.278 63.278">
  <path id="Path_35" data-name="Path 35" d="M195.919,6.8l-6.728-5.652a4.854,4.854,0,0,0-6.271,0L176.192,6.8Z" transform="translate(-154.416)" fill="#36a7a7"/>
  <path id="Path_36" data-name="Path 36" d="M46,99.34l25.193,19.682a1.236,1.236,0,0,0,1.522,0L97.908,99.34V87.492a2.472,2.472,0,0,0-2.472-2.472H48.472A2.472,2.472,0,0,0,46,87.492Zm41.341,2.98a1.854,1.854,0,0,1-1.854,1.854H58.421a1.854,1.854,0,1,1,0-3.708H85.487A1.854,1.854,0,0,1,87.341,102.32Zm-11.37-9.269a1.854,1.854,0,0,1,0,3.708H58.421a1.854,1.854,0,0,1,0-3.708Z" transform="translate(-40.315 -74.512)" fill="#36a7a7"/>
  <path id="Path_37" data-name="Path 37" d="M83.059,390.731a4.942,4.942,0,0,0,1.457-.219L61.24,373.825a1.868,1.868,0,0,1-.228-.2l-1.606,1.255a4.944,4.944,0,0,1-6.087,0l-1.606-1.255a1.85,1.85,0,0,1-.228.2L28.211,390.513a4.942,4.942,0,0,0,1.457.219Z" transform="translate(-24.724 -327.453)" fill="#36a7a7"/>
  <path id="Path_38" data-name="Path 38" d="M342.05,203.02l-23.966,18.724L341.5,238.531a4.922,4.922,0,0,0,.551-2.268Z" transform="translate(-278.772 -177.929)" fill="#36a7a7"/>
  <path id="Path_39" data-name="Path 39" d="M23.966,221.744,0,203.02v33.243a4.92,4.92,0,0,0,.551,2.267Z" transform="translate(0 -177.929)" fill="#36a7a7"/>
</svg>
