<svg xmlns="http://www.w3.org/2000/svg" width="174" height="104.4" viewBox="0 0 174 104.4">
  <g id="mastercard_1_" data-name="mastercard (1)" transform="translate(0 -100.8)">
    <path id="Path_239" data-name="Path 239" d="M306,153a52.2,52.2,0,0,1-104.4,0h0A52.2,52.2,0,1,1,306,153Z" transform="translate(-132 0)" fill="#ffb600"/>
    <path id="Path_240" data-name="Path 240" d="M253.8,100.8A52.336,52.336,0,0,1,306,153h0a52.2,52.2,0,1,1-104.4,0" transform="translate(-132)" fill="#f7981d"/>
    <path id="Path_241" data-name="Path 241" d="M352.8,100.8A52.336,52.336,0,0,1,405,153h0a52.158,52.158,0,0,1-52.2,52.2" transform="translate(-231)" fill="#ff8500"/>
    <path id="Path_242" data-name="Path 242" d="M51.648,100.8A52.2,52.2,0,0,0,52.2,205.2a52.808,52.808,0,0,0,35.076-13.533h0a49.629,49.629,0,0,0,5.248-5.524H81.752a63.715,63.715,0,0,1-3.867-5.248h18.5a35.381,35.381,0,0,0,3.038-5.524H74.848a32.918,32.918,0,0,1-2.21-5.524h28.724a54.842,54.842,0,0,0,2.762-16.571,71.29,71.29,0,0,0-1.1-11.048H70.981a40.378,40.378,0,0,1,1.381-5.524h28.724a32.919,32.919,0,0,0-2.21-5.524h-24.3a54.774,54.774,0,0,1,3.038-5.524h18.5a26.265,26.265,0,0,0-4.143-5.524H81.752A47.076,47.076,0,0,1,87,114.886a50.965,50.965,0,0,0-35.076-13.533C51.924,100.8,51.924,100.8,51.648,100.8Z" fill="#ff5050"/>
    <path id="Path_243" data-name="Path 243" d="M0,154.048a52.158,52.158,0,0,0,52.2,52.2,52.808,52.808,0,0,0,35.076-13.533h0a49.628,49.628,0,0,0,5.248-5.524H81.752a63.712,63.712,0,0,1-3.867-5.248h18.5a35.381,35.381,0,0,0,3.038-5.524H74.848a32.918,32.918,0,0,1-2.21-5.524h28.724a54.842,54.842,0,0,0,2.762-16.571,71.291,71.291,0,0,0-1.1-11.048H70.981a40.377,40.377,0,0,1,1.381-5.524h28.724a32.918,32.918,0,0,0-2.21-5.524h-24.3A54.772,54.772,0,0,1,77.61,126.7h18.5a26.265,26.265,0,0,0-4.143-5.524H81.752A47.076,47.076,0,0,1,87,115.933,50.965,50.965,0,0,0,51.924,102.4h-.276" transform="translate(0 -1.048)" fill="#e52836"/>
    <path id="Path_244" data-name="Path 244" d="M150.152,206.248a52.808,52.808,0,0,0,35.076-13.533h0a49.63,49.63,0,0,0,5.248-5.524H179.7a63.712,63.712,0,0,1-3.867-5.248h18.5a35.381,35.381,0,0,0,3.038-5.524H172.8a32.919,32.919,0,0,1-2.21-5.524h28.724a54.842,54.842,0,0,0,2.762-16.571,71.291,71.291,0,0,0-1.1-11.048H168.933a40.38,40.38,0,0,1,1.381-5.524h28.724a32.918,32.918,0,0,0-2.21-5.524h-24.3a54.774,54.774,0,0,1,3.038-5.524h18.5a26.265,26.265,0,0,0-4.143-5.524H179.7a47.077,47.077,0,0,1,5.248-5.248A50.965,50.965,0,0,0,149.876,102.4H149.6" transform="translate(-97.952 -1.048)" fill="#cb2026"/>
    <g id="Group_405" data-name="Group 405" transform="translate(4.971 139.467)">
      <path id="Path_245" data-name="Path 245" d="M189.61,244.3l.829-4.7a11.96,11.96,0,0,1-1.381.276c-1.933,0-2.21-1.1-1.933-1.657l1.657-9.667h3.038l.829-5.248h-2.762l.552-3.314h-5.524s-3.314,18.229-3.314,20.438c0,3.314,1.933,4.7,4.419,4.7A8.478,8.478,0,0,0,189.61,244.3Z" transform="translate(-123.876 -217.514)" fill="#fff"/>
      <path id="Path_246" data-name="Path 246" d="M210.4,241.162c0,7.733,5.248,9.667,9.667,9.667,4.143,0,5.8-.829,5.8-.829l1.1-5.248a16.557,16.557,0,0,1-5.8,1.381c-6.076,0-4.971-4.419-4.971-4.419h11.324a35.81,35.81,0,0,0,.829-4.971c0-3.59-1.933-8.01-8.01-8.01C214.543,228.181,210.4,234.258,210.4,241.162Zm9.667-8.01c3.038,0,2.486,3.59,2.486,3.867h-6.076C216.476,236.743,217.029,233.153,220.067,233.153Z" transform="translate(-142.733 -223.21)" fill="#fff"/>
      <path id="Path_247" data-name="Path 247" d="M311.19,239.59l1.1-6.076a13.573,13.573,0,0,1-4.7,1.381c-3.867,0-5.524-3.038-5.524-6.352,0-6.629,3.314-10.219,7.181-10.219a9.223,9.223,0,0,1,4.971,1.657l.829-5.8A19.419,19.419,0,0,0,308.7,212.8c-6.352,0-12.7,5.524-12.7,16.019,0,6.9,3.314,11.6,9.943,11.6A24.788,24.788,0,0,0,311.19,239.59Z" transform="translate(-198.781 -212.8)" fill="#fff"/>
      <path id="Path_248" data-name="Path 248" d="M96.9,227.2a19.561,19.561,0,0,0-6.629,1.1l-.829,4.7a16.325,16.325,0,0,1,6.076-1.1c1.933,0,3.59.276,3.59,1.933,0,1.1-.276,1.381-.276,1.381H96.343c-4.7,0-9.943,1.933-9.943,8.286,0,4.971,3.314,6.076,5.248,6.076a8.3,8.3,0,0,0,5.8-2.486l-.276,2.21h4.971l2.21-15.19C104.352,227.476,98.829,227.2,96.9,227.2ZM98,239.629c0,.829-.552,5.248-3.867,5.248a2.156,2.156,0,0,1-2.21-2.21c0-1.381.829-3.314,4.971-3.314A4.355,4.355,0,0,0,98,239.629Z" transform="translate(-61.543 -222.229)" fill="#fff"/>
      <path id="Path_249" data-name="Path 249" d="M141.552,249.048c1.381,0,8.286.276,8.286-7.181,0-6.9-6.629-5.524-6.629-8.286,0-1.381,1.1-1.933,3.038-1.933.829,0,3.867.276,3.867.276l.829-4.971a20.979,20.979,0,0,0-5.248-.552c-4.143,0-8.286,1.657-8.286,7.181,0,6.352,6.9,5.8,6.9,8.286,0,1.657-1.933,1.933-3.314,1.933a18.061,18.061,0,0,1-4.971-.829l-.829,4.971C135.476,248.5,136.857,249.048,141.552,249.048Z" transform="translate(-93.495 -221.705)" fill="#fff"/>
      <path id="Path_250" data-name="Path 250" d="M442.943,214.4l-1.1,7.457s-2.21-2.762-5.248-2.762c-4.971,0-9.391,6.076-9.391,13.257,0,4.419,2.21,9.114,6.9,9.114a7.373,7.373,0,0,0,5.248-2.21l-.276,1.933H444.6l4.143-26.514Zm-2.486,14.638c0,3.038-1.381,6.9-4.419,6.9-1.933,0-3.038-1.657-3.038-4.419,0-4.419,1.933-7.181,4.419-7.181C439.352,224.343,440.457,225.724,440.457,229.038Z" transform="translate(-284.686 -213.848)" fill="#fff"/>
      <path id="Path_251" data-name="Path 251" d="M19.648,240.914l3.314-19.886.552,19.886h3.867l7.181-19.886-3.038,19.886h5.8L41.743,214.4H32.629L27.1,230.7l-.276-16.3h-8.01L14.4,240.914Z" transform="translate(-14.4 -213.848)" fill="#fff"/>
      <path id="Path_252" data-name="Path 252" d="M266.076,250.343c1.657-9.114,1.933-16.571,5.8-15.19a21.679,21.679,0,0,1,1.933-6.352h-1.1c-2.486,0-4.419,3.314-4.419,3.314l.552-3.038H263.59L260,250.619h6.076Z" transform="translate(-175.21 -223.276)" fill="#fff"/>
      <path id="Path_253" data-name="Path 253" d="M356.9,227.2a19.561,19.561,0,0,0-6.629,1.1l-.829,4.7a16.326,16.326,0,0,1,6.076-1.1c1.933,0,3.59.276,3.59,1.933,0,1.1-.276,1.381-.276,1.381h-2.486c-4.7,0-9.943,1.933-9.943,8.286,0,4.971,3.314,6.076,5.248,6.076a8.3,8.3,0,0,0,5.8-2.486l-.276,2.21h4.971l2.21-15.19C364.629,227.476,358.829,227.2,356.9,227.2Zm1.381,12.429c0,.829-.552,5.248-3.867,5.248a2.156,2.156,0,0,1-2.21-2.21c0-1.381.829-3.314,4.971-3.314C358,239.629,358,239.629,358.276,239.629Z" transform="translate(-231.781 -222.229)" fill="#fff"/>
      <path id="Path_254" data-name="Path 254" d="M400.476,250.343c1.657-9.114,1.933-16.571,5.8-15.19a21.677,21.677,0,0,1,1.933-6.352h-1.1c-2.486,0-4.419,3.314-4.419,3.314l.552-3.038H397.99l-3.59,21.543h6.076Z" transform="translate(-263.21 -223.276)" fill="#fff"/>
    </g>
    <g id="Group_406" data-name="Group 406" transform="translate(4.971 139.467)">
      <path id="Path_255" data-name="Path 255" d="M180,240.438c0,3.314,1.933,4.7,4.419,4.7a10.513,10.513,0,0,0,4.143-.829l.829-4.7a11.962,11.962,0,0,1-1.381.276c-1.933,0-2.21-1.1-1.933-1.657l1.657-9.667h3.038l.829-5.248h-2.762L189.39,220" transform="translate(-122.829 -217.514)" fill="#dce5e5"/>
      <path id="Path_256" data-name="Path 256" d="M218.4,241.162c0,7.733,2.486,9.667,6.9,9.667,4.143,0,5.8-.829,5.8-.829l1.1-5.248a16.557,16.557,0,0,1-5.8,1.381c-6.076,0-4.971-4.419-4.971-4.419h11.324a35.81,35.81,0,0,0,.829-4.971c0-3.59-1.933-8.01-8.01-8.01C219.781,228.181,218.4,234.258,218.4,241.162Zm6.9-8.01c3.038,0,3.59,3.59,3.59,3.867h-7.181C221.714,236.743,222.267,233.153,225.3,233.153Z" transform="translate(-147.971 -223.21)" fill="#dce5e5"/>
      <path id="Path_257" data-name="Path 257" d="M316.429,239.59l1.1-6.076a13.573,13.573,0,0,1-4.7,1.381c-3.867,0-5.524-3.038-5.524-6.352,0-6.629,3.314-10.219,7.181-10.219a9.223,9.223,0,0,1,4.971,1.657l.829-5.8a19.419,19.419,0,0,0-6.352-1.381c-6.352,0-9.943,5.524-9.943,16.019,0,6.9.552,11.6,7.181,11.6A24.788,24.788,0,0,0,316.429,239.59Z" transform="translate(-204.019 -212.8)" fill="#dce5e5"/>
      <path id="Path_258" data-name="Path 258" d="M89.438,234.324a16.326,16.326,0,0,1,6.076-1.1c1.933,0,3.59.276,3.59,1.933,0,1.1-.276,1.381-.276,1.381H96.343c-4.7,0-9.943,1.933-9.943,8.286,0,4.971,3.314,6.076,5.248,6.076a8.3,8.3,0,0,0,5.8-2.486l-.276,2.21h4.971l2.21-15.19c0-6.352-5.524-6.629-7.733-6.629m4.143,11.876c0,.829-3.314,5.248-6.629,5.248a2.156,2.156,0,0,1-2.21-2.21c0-1.381.829-3.314,4.971-3.314A22.565,22.565,0,0,0,100.762,240.676Z" transform="translate(-61.543 -223.276)" fill="#dce5e5"/>
      <path id="Path_259" data-name="Path 259" d="M136,248.5s1.657.552,6.352.552c1.381,0,8.286.276,8.286-7.181,0-6.9-6.629-5.524-6.629-8.286,0-1.381,1.1-1.933,3.038-1.933.829,0,3.867.276,3.867.276l.829-4.971a20.979,20.979,0,0,0-5.248-.552c-4.143,0-5.524,1.657-5.524,7.181,0,6.352,4.143,5.8,4.143,8.286,0,1.657-1.933,1.933-3.314,1.933" transform="translate(-94.019 -221.705)" fill="#dce5e5"/>
      <path id="Path_260" data-name="Path 260" d="M447.038,222.381s-2.21-2.762-5.248-2.762c-4.971,0-6.629,6.076-6.629,13.257,0,4.419-.552,9.114,4.143,9.114a7.373,7.373,0,0,0,5.248-2.21l-.276,1.933H449.8l4.143-26.514m-7.181,14.362c0,3.038-2.486,6.9-5.524,6.9-1.933,0-3.038-1.657-3.038-4.419,0-4.419,1.933-7.181,4.419-7.181C444.552,224.867,446.762,226.248,446.762,229.562Z" transform="translate(-289.886 -214.371)" fill="#dce5e5"/>
      <path id="Path_261" data-name="Path 261" d="M19.648,240.914l3.314-19.886.552,19.886h3.867l7.181-19.886-3.038,19.886h5.8L41.743,214.4h-6.9L27.1,230.7l-.276-16.3H23.79L14.4,240.914Z" transform="translate(-14.4 -213.848)" fill="#dce5e5"/>
      <path id="Path_262" data-name="Path 262" d="M260.8,250.343h5.8c1.657-9.114,1.933-16.571,5.8-15.19a21.678,21.678,0,0,1,1.933-6.352h-1.1c-2.486,0-4.419,3.314-4.419,3.314l.552-3.038" transform="translate(-175.733 -223.276)" fill="#dce5e5"/>
      <path id="Path_263" data-name="Path 263" d="M349.438,234.324a16.326,16.326,0,0,1,6.076-1.1c1.933,0,3.59.276,3.59,1.933,0,1.1-.276,1.381-.276,1.381h-2.486c-4.7,0-9.943,1.933-9.943,8.286,0,4.971,3.314,6.076,5.248,6.076a8.3,8.3,0,0,0,5.8-2.486l-.276,2.21h4.971l2.21-15.19c0-6.352-5.524-6.629-7.733-6.629m4.143,11.876c0,.829-3.314,5.248-6.629,5.248a2.156,2.156,0,0,1-2.21-2.21c0-1.381.829-3.314,4.971-3.314A24.3,24.3,0,0,0,360.762,240.676Z" transform="translate(-231.781 -223.276)" fill="#dce5e5"/>
      <path id="Path_264" data-name="Path 264" d="M395.2,250.343H401c1.657-9.114,1.933-16.571,5.8-15.19a21.677,21.677,0,0,1,1.933-6.352h-1.1c-2.486,0-4.419,3.314-4.419,3.314l.552-3.038" transform="translate(-263.733 -223.276)" fill="#dce5e5"/>
    </g>
  </g>
</svg>
