<svg xmlns="http://www.w3.org/2000/svg" width="136.043" height="129.855" viewBox="0 0 136.043 129.855">
  <g id="paypal" transform="translate(0 -10.676)">
    <path id="Path_170" data-name="Path 170" d="M216.99,77.666a10.982,10.982,0,0,0-11.236-2.4,3.092,3.092,0,0,0-2.078,2.473l-.866,5.949A18.347,18.347,0,0,1,184.73,99.383H172.362a3.092,3.092,0,0,0-3,2.343l-9.275,37.1a3.092,3.092,0,0,0,3,3.84h15.459a3.092,3.092,0,0,0,3-2.343l5.6-22.391H199.2a20.053,20.053,0,0,0,19.54-15.267l2.282-9.145A16.261,16.261,0,0,0,216.99,77.666Z" transform="translate(-113.62 -45.422)" fill="#03a9f4"/>
    <g id="Group_240" data-name="Group 240" transform="translate(0 103.43)">
      <path id="Path_171" data-name="Path 171" d="M3.091,361.594a3.092,3.092,0,0,1-3-3.84l3.092-12.305v-.13l3.092-12.3a3.092,3.092,0,0,1,3-2.343H17.14a7.73,7.73,0,0,1,7.5,9.6l-.773,3.092a7.73,7.73,0,0,1-7.5,5.856H8.6L6.1,359.251A3.092,3.092,0,0,1,3.091,361.594Zm7.055-18.551h6.221a1.546,1.546,0,0,0,1.5-1.175l.773-3.092a1.539,1.539,0,0,0-1.5-1.923H11.692Z" transform="translate(0 -330.677)" fill="#283593"/>
      <path id="Path_172" data-name="Path 172" d="M92.944,391.877h-4.4a8.57,8.57,0,0,1-8.317-10.648h0l.408-1.645a8.249,8.249,0,0,1,8.039-6.264h4.4a8.571,8.571,0,0,1,8.3,10.654l-.408,1.645A8.249,8.249,0,0,1,92.944,391.877Zm-6.715-9.146a2.387,2.387,0,0,0,2.313,2.962h4.4a2.072,2.072,0,0,0,2.016-1.571l.408-1.645a2.388,2.388,0,0,0-2.313-2.962h-4.4a2.072,2.072,0,0,0-2.016,1.571Z" transform="translate(-56.79 -360.96)" fill="#283593"/>
      <path id="Path_173" data-name="Path 173" d="M131.091,391.885a3.092,3.092,0,0,1-3-3.84l3.092-12.367a3.094,3.094,0,0,1,6,1.5L134.1,389.542A3.092,3.092,0,0,1,131.091,391.885Z" transform="translate(-90.899 -360.968)" fill="#283593"/>
    </g>
    <g id="Group_241" data-name="Group 241" transform="translate(74.203 103.43)">
      <path id="Path_174" data-name="Path 174" d="M259.091,361.594a3.092,3.092,0,0,1-3-3.84l3.092-12.305v-.13l3.092-12.3a3.092,3.092,0,0,1,3-2.343h7.866a7.73,7.73,0,0,1,7.5,9.6l-.773,3.092a7.73,7.73,0,0,1-7.5,5.856H264.6l-2.5,10.023A3.092,3.092,0,0,1,259.091,361.594Zm7.055-18.551h6.227a1.546,1.546,0,0,0,1.5-1.175l.773-3.092a1.539,1.539,0,0,0-1.5-1.923h-5.454Z" transform="translate(-256 -330.676)" fill="#03a9f4"/>
      <path id="Path_175" data-name="Path 175" d="M348.944,391.877h-4.4a8.57,8.57,0,0,1-8.317-10.648h0l.408-1.645a8.249,8.249,0,0,1,8.039-6.264h4.4a8.57,8.57,0,0,1,8.317,10.648l-.408,1.645A8.249,8.249,0,0,1,348.944,391.877Zm-6.715-9.146a2.387,2.387,0,0,0,2.313,2.962h4.4a2.072,2.072,0,0,0,2.016-1.571l.408-1.645a2.388,2.388,0,0,0-2.313-2.962h-4.4a2.072,2.072,0,0,0-2.016,1.571Z" transform="translate(-312.79 -360.959)" fill="#03a9f4"/>
      <path id="Path_176" data-name="Path 176" d="M387.091,391.885a3.092,3.092,0,0,1-3-3.84l3.092-12.367a3.094,3.094,0,0,1,6,1.5h0L390.1,389.542A3.092,3.092,0,0,1,387.091,391.885Z" transform="translate(-346.899 -360.968)" fill="#03a9f4"/>
    </g>
    <g id="Group_242" data-name="Group 242" transform="translate(49.467 115.793)">
      <path id="Path_177" data-name="Path 177" d="M179.937,388.792a3.092,3.092,0,0,1-2.572-1.379l-6.183-9.275a3.092,3.092,0,0,1,5.145-3.432l6.183,9.275a3.092,3.092,0,0,1-2.572,4.811Z" transform="translate(-170.661 -373.329)" fill="#283593"/>
      <path id="Path_178" data-name="Path 178" d="M173.758,398.081a3.092,3.092,0,0,1-2.374-5.071l15.459-18.551a3.093,3.093,0,1,1,4.749,3.963h0l-15.459,18.551A3.091,3.091,0,0,1,173.758,398.081Z" transform="translate(-170.665 -373.343)" fill="#283593"/>
    </g>
    <path id="Path_179" data-name="Path 179" d="M429.757,361.586a3.092,3.092,0,0,1-3-3.84l6.183-24.734a3.094,3.094,0,1,1,6,1.5h0l-6.183,24.734A3.091,3.091,0,0,1,429.757,361.586Z" transform="translate(-302.995 -227.239)" fill="#03a9f4"/>
    <path id="Path_180" data-name="Path 180" d="M168.906,16.025a15.626,15.626,0,0,0-11.786-5.349h-35a3.092,3.092,0,0,0-3.042,2.541L106.712,81.236a3.091,3.091,0,0,0,3.042,3.642H128.3a3.092,3.092,0,0,0,3-2.343l5.6-22.391h9.949A24.561,24.561,0,0,0,171.064,39.12l1.546-10.568h0A15.748,15.748,0,0,0,168.906,16.025Z" transform="translate(-75.745 0)" fill="#283593"/>
  </g>
</svg>
