<svg xmlns="http://www.w3.org/2000/svg" width="50.55" height="47.607" viewBox="0 0 50.55 47.607">
  <g id="quotation-mark" opacity="0.29">
    <path id="Path_33" data-name="Path 33" d="M.368,34.01C2.118,25,10.37,20.907,18.793,22.5c-.966-5.054-5.7-9.187-8.773-13.029a1.441,1.441,0,0,1,0-2.016A5.9,5.9,0,0,1,14.547,6a.537.537,0,0,1,.685-.357c4.947,1.558,8.15,6.842,10.293,11.221A39.083,39.083,0,0,1,29.44,35.763c-.524,10.126-9.565,19.781-20.33,16.97C1.251,50.68-.98,40.951.368,34.01Zm20.143,8.1s0-.006,0-.009c-.049-.19-.091-.382-.136-.573a4.025,4.025,0,0,0-.395.624,4.989,4.989,0,0,0,.536.043C20.514,42.168,20.51,42.142,20.511,42.113ZM22.788,18.35a1.364,1.364,0,0,1-.411.1q.631,1.265,1.158,2.579a1.53,1.53,0,0,1,.427-.062C23.606,20.082,23.208,19.212,22.788,18.35Zm1.08,25.7c-.338.35-.7.685-1.079,1.007a1.367,1.367,0,0,1,.145.234A11.194,11.194,0,0,0,23.868,44.053Zm-9.71-.035a5.842,5.842,0,0,0,.967-1.874.4.4,0,0,1,.049-.151,5.43,5.43,0,0,0,.145-.726A20.118,20.118,0,0,0,13.506,44.4,3.853,3.853,0,0,0,14.158,44.018Z" transform="translate(21.062 -5.619)" fill="#3f8285"/>
    <path id="Path_34" data-name="Path 34" d="M104.838,23.883c-.952-3.845-3.549-6.5-5.435-9.968a1.278,1.278,0,0,1,.456-1.739c1.174-.546,2.229-1.151,3.4-1.6a1.427,1.427,0,0,1,2.25-.515,27.4,27.4,0,0,1,4.3,4.863,15.408,15.408,0,0,1,3.287,6.968,1.514,1.514,0,0,1-.113.837l.182.314a1.146,1.146,0,0,1-.407,1.553,16.929,16.929,0,0,0-8.851,15.838,6.29,6.29,0,0,1,.283,2.889,26.288,26.288,0,0,0,3.453,9.211,1.337,1.337,0,0,1-.137,1.681,1.054,1.054,0,0,1-.84.712c-10.194,2.3-20.45-2.576-21.556-13.7C84.087,30.878,94.869,22.156,104.838,23.883ZM100.96,52.645c-.036-.034-.068-.071-.1-.106a5.894,5.894,0,0,1-2.518-.759c-.008.036-.014.069-.023.106a1.27,1.27,0,0,1-.115.261A19.508,19.508,0,0,0,100.96,52.645ZM93.729,33.186c.1.177.182.355.267.534.007-.05.008-.1.015-.151a5.293,5.293,0,0,0-.178-1.135l-.034.021q-.077.32-.126.652C93.691,33.134,93.713,33.157,93.729,33.186Zm-4.87,11.161c0-.243,0-.488.009-.734a7.719,7.719,0,0,1-.432-.838A11.28,11.28,0,0,0,88.859,44.347Z" transform="translate(-85.048 -8.629)" fill="#3f8285"/>
  </g>
</svg>
