<svg xmlns="http://www.w3.org/2000/svg" width="239.496" height="70.416" viewBox="0 0 239.496 70.416">
  <g id="STC-pay-01-الاتصالات-السعودية" transform="translate(-150.7 -397.3)">
    <path id="Path_235" data-name="Path 235" d="M603.8,476.316v-37.2h6.308V442.1a10.18,10.18,0,0,1,8.3-3.7c7.268,0,12.479,5.794,12.479,14.09s-5.245,14.193-12.479,14.193a10.183,10.183,0,0,1-8.3-3.771v13.4Zm6.308-27.254v6.856a7.8,7.8,0,0,0,7.2,4.8c4.182,0,6.994-3.12,6.994-8.262,0-5.074-2.811-8.159-6.994-8.159a7.721,7.721,0,0,0-7.2,4.765" transform="translate(-297.767 -27.01)" fill="#02aa7c"/>
    <path id="Path_236" data-name="Path 236" d="M694.7,459.564c0-4.525,2.811-7.679,7.474-8.262l10.73-1.371v-1.337a2.156,2.156,0,0,0-2.331-2.468H697.1V440.4h13.713c5.451,0,8.433,2.674,8.433,7.4v19.37H712.87v-3.257c-1.851,2.605-4.9,4.08-8.845,4.08-5.554,0-9.325-3.394-9.325-8.433m10.867,3.291a7.852,7.852,0,0,0,7.3-4.491V455l-8.193,1.131c-2.263.309-3.531,1.508-3.531,3.463,0,2.091,1.611,3.257,4.422,3.257" transform="translate(-357.504 -28.324)" fill="#02aa7c"/>
    <path id="Path_237" data-name="Path 237" d="M777.4,471.905h4.594c1.748,0,2.537-.72,3.12-2.366l.823-2.365L776.2,440.4h6.582l6.068,18.65h.137l5.794-18.65h6.479L790.6,471.151c-1.44,4.217-3.36,6.479-8.056,6.479H777.4Z" transform="translate(-411.064 -28.324)" fill="#02aa7c"/>
    <path id="Path_238" data-name="Path 238" d="M173.841,467.716c7.336,0,13.37-2.3,17.347-6.137a15.9,15.9,0,0,0,4.731-11.519,14.913,14.913,0,0,0-4.388-10.73,22.93,22.93,0,0,0-12.067-5.931l-8.433-1.646c-3.5-.651-5.485-2.4-5.485-4.834,0-3.188,3.085-5.382,8.022-5.382a10.409,10.409,0,0,1,7.474,2.743,8.3,8.3,0,0,1,2.091,4.491l12.17-2.743a15.026,15.026,0,0,0-4.491-9.119c-4.011-3.942-10.148-6.445-17.381-6.445-6.685,0-12.273,2.194-16.147,5.691a16.016,16.016,0,0,0-5.142,11.862,13.64,13.64,0,0,0,3.942,10.079c2.64,2.64,6.479,4.594,11.519,5.828l8.331,1.988c4.182.994,6.034,2.537,6.034,5.279,0,3.394-3.085,5.382-8.125,5.382a11.283,11.283,0,0,1-8.433-3.188,7.657,7.657,0,0,1-2.194-5.039L150.7,451.089a15.648,15.648,0,0,0,4.731,9.668c4.148,4.354,10.867,6.959,18.41,6.959m92.631,0c8.125,0,14.364-2.948,18.65-7.131a24.377,24.377,0,0,0,6.582-11.073l-12.822-4.285a12.177,12.177,0,0,1-3.394,5.691,12.468,12.468,0,0,1-9.016,3.394,13.876,13.876,0,0,1-9.77-3.942c-2.537-2.64-4.08-6.479-4.08-11.313,0-4.937,1.543-8.673,4.08-11.313a13.346,13.346,0,0,1,9.668-3.84,11.633,11.633,0,0,1,8.673,3.291,13.966,13.966,0,0,1,3.291,5.828l13.062-4.388a24.97,24.97,0,0,0-6.137-10.867c-4.388-4.285-10.765-7.336-19.2-7.336a27.718,27.718,0,0,0-19.849,8.022,30,30,0,0,0,.206,41.276,28.027,28.027,0,0,0,20.055,7.988m-44.327,0c5.691,0,9.77-1.748,11.519-3.291V452.563a12.671,12.671,0,0,1-7.371,2.194,7.65,7.65,0,0,1-5.485-1.748c-1.1-1.1-1.646-2.983-1.646-5.485V397.3h-14.5v14.81h28.969v14.056H204.66v24.923c0,5.039,1.543,9.119,4.285,11.965,3.085,3.017,7.611,4.662,13.2,4.662" fill="#502c84"/>
  </g>
</svg>
