<svg xmlns="http://www.w3.org/2000/svg" width="15" height="15.51" viewBox="0 0 22.604 15.51">
  <g id="surface1" transform="translate(0 0.001)">
    <path id="Path_25" data-name="Path 25" d="M22.364,8.514,19.255,9.8l.659.307a.394.394,0,0,1,.185.506l-.9,1.925a.392.392,0,0,1-.221.2.383.383,0,0,1-.3,0l-6.815-3.2-.086-.907-.119-1.213a.291.291,0,0,0-.317-.265.288.288,0,0,0-.239.17.269.269,0,0,0-.032.149l.79,8.37a.784.784,0,0,1-.612.136c-.3-.08-.569-.432-.79-1.011L7.3,5.566,7.209,5.3a.3.3,0,1,0-.569.168.22.22,0,0,1,.007.021l.309.9L7.3,7.424l-5.337-2.5C.426,4.2-.367,2.745.166,1.608A2,2,0,0,1,1.71.53,3.671,3.671,0,0,1,3.868.862l6.043,2.82L16.4,1.149a2,2,0,0,1,1.92.029,1.613,1.613,0,0,1,.588,1.276.4.4,0,0,1-.169.311L14.367,5.76l2.505,1.186,4.2-1.051a.4.4,0,0,1,.438.189l1.042,1.874a.394.394,0,0,1-.151.537C22.39,8.5,22.376,8.508,22.364,8.514Zm0,0" transform="translate(0 -0.49)" fill="#fff"/>
  </g>
</svg>
